<?xml version="1.0" standalone="no"?>
<!DOCTYPE svg PUBLIC "-//W3C//DTD SVG 20010904//EN"
 "http://www.w3.org/TR/2001/REC-SVG-20010904/DTD/svg10.dtd">
<svg version="1.0" xmlns="http://www.w3.org/2000/svg"
 width="512.000000pt" height="512.000000pt" viewBox="0 0 512.000000 512.000000"
 preserveAspectRatio="xMidYMid meet">
<metadata>
Created by potrace 1.11, written by Peter Selinger 2001-2013
</metadata>
<g transform="translate(0.000000,512.000000) scale(0.100000,-0.100000)"
fill="#000000" stroke="none">
<path d="M0 4549 l0 -570 23 7 c12 3 38 14 57 24 19 10 76 32 127 49 333 114
727 112 1064 -5 253 -88 470 -228 703 -454 214 -208 389 -426 691 -865 248
-360 385 -551 483 -673 334 -419 643 -640 989 -708 108 -22 327 -24 433 -5
164 29 329 95 467 187 l83 55 0 953 0 953 -77 51 c-240 157 -526 231 -787 203
-355 -39 -658 -210 -862 -486 -112 -152 -179 -307 -218 -506 l-22 -113 -110
154 c-198 279 -193 270 -179 310 47 132 152 313 258 445 222 276 560 482 914
556 331 70 734 20 1021 -125 28 -14 54 -26 57 -26 3 0 5 261 5 580 l0 580
-2560 0 -2560 0 0 -571z"/>
<path d="M596 3749 c-203 -23 -373 -85 -543 -196 l-53 -35 0 -974 0 -974 70
-46 c123 -79 265 -136 425 -170 97 -20 339 -23 435 -5 448 85 802 393 945 824
14 43 31 111 38 152 6 41 14 75 17 75 3 -1 70 -97 149 -214 l143 -214 -39 -88
c-185 -417 -568 -749 -1014 -878 -144 -41 -272 -59 -434 -59 -268 0 -408 30
-723 160 -9 4 -12 -110 -12 -551 l0 -556 2560 0 2560 0 0 564 0 565 -75 -34
c-456 -208 -972 -201 -1415 19 -192 96 -347 210 -534 394 -217 214 -369 408
-726 927 -477 694 -697 945 -995 1132 -230 145 -518 213 -779 182z"/>
</g>
</svg>
