<?xml version="1.0" encoding="utf-8"?>
<!-- Generator: Adobe Illustrator 21.0.0, SVG Export Plug-In . SVG Version: 6.00 Build 0)  -->
<svg version="1.1" id="Layer_1" xmlns="http://www.w3.org/2000/svg" xmlns:xlink="http://www.w3.org/1999/xlink" x="0px" y="0px"
	 viewBox="0 0 77.3 10.9" style="enable-background:new 0 0 77.3 10.9;" xml:space="preserve">
<style type="text/css">
	.st0{fill-rule:evenodd;clip-rule:evenodd;fill:#FFFFFF;}
</style>
<g>
	<polygon class="st0" points="77.3,10.9 75.5,10.9 70.6,5.1 70.6,10.9 69.3,10.9 69.3,0.1 70.6,0.1 70.6,4.8 75.1,0.1 76.8,0.1 
		72.3,4.9 	"/>
	<polygon class="st0" points="43.2,10.9 37.4,10.9 37.4,0.1 38.7,0.1 38.7,9.5 43.2,9.5 	"/>
	<rect x="12.1" y="4.5" class="st0" width="5.8" height="1.3"/>
	<rect x="12.1" y="9.5" class="st0" width="5.8" height="1.3"/>
	<path class="st0" d="M49.6,0.1c6.2,0,7,9.4,12.2,9.4c2.2,0,4.1-1.8,4.1-4.1c0-2.2-1.8-4.1-4.1-4.1c-2.1,0-3.9,1.7-4,3.8
		c-0.4-0.5-0.7-1-1-1.5c0.7-2.1,2.7-3.6,5.1-3.6c3,0,5.4,2.4,5.4,5.4c0,3-2.4,5.4-5.4,5.4c-6.3,0-7-9.4-12.2-9.4
		c-2.2,0-4.1,1.8-4.1,4.1c0,2.2,1.8,4.1,4.1,4.1c2.1,0,3.8-1.6,4-3.6c0.3,0.5,0.7,1,1,1.5c-0.8,2-2.7,3.5-5,3.5
		c-3,0-5.4-2.4-5.4-5.4C44.3,2.5,46.7,0.1,49.6,0.1z"/>
	<polygon class="st0" points="33.7,0.1 31.1,8.7 28.7,0 27.5,0 25.2,8.7 22.4,0.1 8.1,0.1 8.1,0.1 8.1,8.3 0.8,0.1 0,0.1 0,10.9 
		1.3,10.9 1.3,2.7 8.5,10.9 9.4,10.9 9.4,1.5 21.3,1.5 24.5,10.9 26,10.9 28.1,2.9 30.3,10.9 31.8,10.9 35.1,0.1 	"/>
</g>
</svg>
