<svg xmlns="http://www.w3.org/2000/svg" width="92" height="24" viewBox="0 0 92 24">
  <metadata><?xpacket begin="﻿" id="W5M0MpCehiHzreSzNTczkc9d"?>
<x:xmpmeta xmlns:x="adobe:ns:meta/" x:xmptk="Adobe XMP Core 5.6-c138 79.159824, 2016/09/14-01:09:01        ">
   <rdf:RDF xmlns:rdf="http://www.w3.org/1999/02/22-rdf-syntax-ns#">
      <rdf:Description rdf:about=""/>
   </rdf:RDF>
</x:xmpmeta>
                                                                                                    
                                                                                                    
                                                                                                    
                                                                                                    
                                                                                                    
                                                                                                    
                                                                                                    
                                                                                                    
                                                                                                    
                                                                                                    
                                                                                                    
                                                                                                    
                                                                                                    
                                                                                                    
                                                                                                    
                                                                                                    
                                                                                                    
                                                                                                    
                                                                                                    
                                                                                                    
                           
<?xpacket end="w"?></metadata>
<defs>
    <style>
      .cls-1 {
        fill: #5dd0e3;
        fill-rule: evenodd;
      }
    </style>
  </defs>
  <path class="cls-1" d="M278.032,51.064a1.565,1.565,0,0,1-.119.621,1.406,1.406,0,0,1-.328.477,1.446,1.446,0,0,1-.5.309,1.855,1.855,0,0,1-.644.108,2,2,0,0,1-.565-0.077,1.824,1.824,0,0,1-.443-0.191V47.981h0.408l-0.006,1.751a0.877,0.877,0,0,1,.278-0.121,1.48,1.48,0,0,1,.379-0.044,1.627,1.627,0,0,1,.593.108,1.5,1.5,0,0,1,.491.306A1.47,1.47,0,0,1,278.032,51.064Zm-0.409,0a1.133,1.133,0,0,0-.092-0.464,1.089,1.089,0,0,0-.61-0.592,1.134,1.134,0,0,0-.429-0.083,1.261,1.261,0,0,0-.375.054,0.839,0.839,0,0,0-.28.143V52.09a1.675,1.675,0,0,0,.255.092,1.3,1.3,0,0,0,.349.042,1.322,1.322,0,0,0,.486-0.086A1.089,1.089,0,0,0,277.3,51.9a1.025,1.025,0,0,0,.239-0.367A1.287,1.287,0,0,0,277.623,51.064Zm2.188,1.2a5.769,5.769,0,0,1-.338.678,3.515,3.515,0,0,1-.354.5,2.019,2.019,0,0,1-.376.343,1.739,1.739,0,0,1-.412.21l-0.248-.255a1.625,1.625,0,0,0,.73-0.475,3.592,3.592,0,0,0,.6-1.009l-1.116-2.63h0.421l0.619,1.452,0.143,0.354q0.073,0.181.144,0.372h0.013c0.046-.123.093-0.243,0.139-0.36s0.1-.235.147-0.353l0.626-1.465h0.389ZM316,42.922l-2.192.012L307.984,36v6.919h-1.541v-12.8h1.541v5.628l5.385-5.628h2.079l-5.37,5.746Zm-40.571,0H268.47v-12.8h1.594v11.2h5.365v1.591Zm-36.976-7.611h6.96v1.574h-6.96V35.307Zm0,6.02h6.96v1.591h-6.96V41.327ZM283.066,30.14c7.437,0,8.343,11.229,14.518,11.229a4.839,4.839,0,1,0-4.807-5.219c-0.419-.57-0.822-1.155-1.225-1.734a6.394,6.394,0,1,1,6.032,8.5c-7.445,0-8.315-11.229-14.518-11.229a4.839,4.839,0,1,0,4.791,5.384c0.4,0.574.791,1.161,1.18,1.738A6.395,6.395,0,1,1,283.066,30.14Zm-18.92,0-3.112,10.2L258.16,30h-1.447l-2.748,10.338-3.36-10.2H233.629v9.7l-8.7-9.7H224V42.918h1.576V33.259l8.56,9.659h1.069V31.73h14.2l3.739,11.188h1.782l2.541-9.527,2.6,9.527h1.786l3.938-12.778h-1.646Zm31.59,17.149c-0.035,0-.069,0-0.1,0q-0.1,0-.207,0h-1.305v5.225h0.845V50.288h0.6c0.079,0,.153,0,0.225-0.011A1.495,1.495,0,0,0,295.736,47.289Zm0.4,2.067-0.006.006-0.024.017a0.678,0.678,0,0,1-.359.137c-0.077.008-.337,0-0.4,0h-0.375V48.059H295.7a0.714,0.714,0,0,1,.693.729A0.731,0.731,0,0,1,296.133,49.355Zm-5.725-2.215a2.761,2.761,0,1,0,2.766,2.761A2.763,2.763,0,0,0,290.408,47.14Zm0,4.678a1.917,1.917,0,1,1,1.92-1.917A1.918,1.918,0,0,1,290.408,51.818Zm-3.093-4.529h-3.756v0.8h1.455v4.426h0.845V48.087h1.456v-0.8Zm16.272,0h-3.756v0.8h1.455v4.426h0.845V48.087h1.456v-0.8Zm1.711,5.225h-0.846V47.3H305.3v5.21Zm6.982,0-0.922-5.225h-0.741l-1.378,3.405-1.377-3.405h-0.694l-0.922,5.225H307.1l0.588-3.391,1.372,3.391h0.352l1.4-3.455,0.609,3.455h0.858ZM316,48.087v-0.8h-2.927v5.225H316v-0.8h-2.081V50.293H316v-0.8h-2.081V48.087H316Z" transform="translate(-224 -30)"/>
</svg>
